<?xml version="1.0" encoding="UTF-8"?> <!-- Generator: Adobe Illustrator 22.1.0, SVG Export Plug-In . SVG Version: 6.00 Build 0) --> <svg xmlns="http://www.w3.org/2000/svg" xmlns:xlink="http://www.w3.org/1999/xlink" id="Layer_1" x="0px" y="0px" viewBox="0 0 1920 1080" style="enable-background:new 0 0 1920 1080;" xml:space="preserve"> <style type="text/css"> .st0{fill:#FFFFFF;} </style> <g> <path class="st0" d="M954.4,586.8c8.7-6.8,16.9-10.1,24.5-10.1c13.5,0,23.5,10.1,23.5,23.5c0,12.1-8.2,23-24.5,32.2 c-24,14.3-49.4,21.6-75.9,21.6c-33.2,0-60-10.1-81.6-30.7c-21.6-20.6-32.2-46.7-32.2-78.9c0-32.2,10.6-58.1,32.2-78.9 c21.6-20.6,48.6-30.7,81.6-30.7c26.4,0,52,7.2,76,21.6c16.4,9.2,24.5,20.1,24.5,32.2c0,13.5-10.1,23.5-23.5,23.5 c-7.7,0-15.9-3.4-24.5-10.1c-16.9-14-34.1-21.1-52-21.1c-34.6,0-61,25.4-61,63.4s26.4,63.4,61,63.4 C920.3,608,937.6,600.8,954.4,586.8z"></path> <g> <path class="st0" d="M183.1,684.1l-70.4,153.2c-8.2,17.6-19.4,26.4-33.5,26.4C61,863.7,48,849.6,48,834.9c0-7.7,2.4-15.9,7-24.7 l92.8-187.3c8.8-18.2,20.5-27,35.2-27s26.4,8.8,35.2,27l92.8,187.3c4.8,8.8,7,17,7,24.7c0,14.7-13,28.8-31.1,28.8 c-14.1,0-25.3-8.8-33.5-26.4L183.1,684.1z"></path> <path class="st0" d="M460.9,712.9c-21.4-22.4-32.1-51.8-32.1-88.6c0-36.4,10.7-65.7,32.1-88.1c21.4-22.4,48.1-33.6,80.6-33.6 c30.9,0,54.5,9.1,69.9,26.7v-2.1c0-14.5,11.7-24.5,27.2-24.5c16.6,0,28.8,11.7,28.8,30.9v181.5c0,19.2-12.3,30.9-28.8,30.9 c-15,0-27.2-9.6-27.2-24v-2.1c-16.6,17.6-40,26.2-69.9,26.2C509,746,482.3,734.8,460.9,712.9z M612.6,624.3 c0-42.8-24-70.4-61.9-70.4c-36.4,0-62.5,28.3-62.5,70.4c0,42.1,25.7,70.4,62.5,70.4C588.6,694.8,612.6,667,612.6,624.3z"></path> <path class="st0" d="M1306.8,362.8c17.1,0,27.3,7.7,27.3,21c0,14.1-8.9,21.4-27.3,21.4c-6,0-16.2-0.4-30.3-0.9 c-14.1-0.4-22.3-0.9-24.8-0.9v124.3c0,15.9-9.4,25.2-23,25.2c-14.1,0-23-9.4-23-25.2V403.4c-21.8,1.3-40.1,1.6-55.1,1.6 c-18.4,0-27.3-7.3-27.3-21.4c0-13.2,10.2-21,27.3-21h156.2V362.8z"></path> <path class="st0" d="M1608.7,286.2v126.4c0,13.8-8.6,22-20.5,22c-12.3,0-20.9-8.2-20.9-22v-82.3l-71.1,88.9 c-8.6,10.4-16.9,15.7-25,15.7c-12.3,0-19.8-7.8-19.8-21.6V286.3c-2.3-29.2,43.4-29.2,41.1,0v83.8l71.1-89.3 c8.6-10.8,16.9-16.5,25-16.5C1600.5,264.2,1608.7,272.7,1608.7,286.2z"></path> <path class="st0" d="M1839.3,354.2l-47-58.2l-24,16.6v31.7c0,11.8-7,18.6-17.2,18.6c-9.9,0-17-6.7-17-18.6V235.5 c0-11.6,7-18.6,17.2-18.6c9.9,0,17,7,17,18.6v38.7l67.6-49.9c7-4.8,13.1-7.3,18.2-7.3c9.9,0,16.4,6.7,16.4,16.6 c0,6.7-3.8,12.8-11.2,17.6l-38.4,26.3l43.5,52.2c5.4,6.4,8.1,12.2,8.1,17c0,8.9-6.4,16.4-16.6,16.4 C1849.5,362.8,1844.1,360,1839.3,354.2z"></path> </g> </g> </svg> 